<svg width="99" height="24" viewBox="0 0 99 24" fill="none" xmlns="http://www.w3.org/2000/svg">
<path d="M28.612 15.316C28.916 15.268 29.124 15.172 29.236 15.028C29.348 14.884 29.404 14.636 29.404 14.284L29.416 9.688C29.416 9.44 29.388 9.276 29.332 9.196C29.276 9.108 29.16 9.064 28.984 9.064L28.612 9.076L28.552 8.98L28.648 8.284L30.256 8.296C30.48 8.296 30.804 8.284 31.228 8.26C31.66 8.236 31.944 8.22 32.08 8.212L31.996 9.04C31.724 9.072 31.524 9.12 31.396 9.184C31.276 9.24 31.196 9.324 31.156 9.436C31.124 9.54 31.1 9.708 31.084 9.94C30.996 11.14 30.952 12.608 30.952 14.344C30.952 14.56 30.972 14.72 31.012 14.824C31.052 14.92 31.124 14.988 31.228 15.028C31.332 15.06 31.492 15.076 31.708 15.076C32.108 15.076 32.404 15.032 32.596 14.944C32.796 14.856 32.944 14.688 33.04 14.44C33.136 14.192 33.216 13.8 33.28 13.264L34.252 13.156L34.336 13.276C34.312 13.428 34.264 13.772 34.192 14.308C34.128 14.836 34.072 15.392 34.024 15.976L33.904 16.096C33.688 16.088 33.22 16.068 32.5 16.036C31.78 16.012 31.128 16 30.544 16C30.104 16 29.684 16.016 29.284 16.048C28.884 16.08 28.628 16.104 28.516 16.12L28.612 15.316ZM34.7384 15.412C35.0264 15.356 35.2144 15.28 35.3024 15.184C35.3904 15.08 35.4344 14.896 35.4344 14.632L35.4464 11.14C35.4464 10.948 35.4224 10.82 35.3744 10.756C35.3264 10.692 35.2304 10.66 35.0864 10.66H34.7624L34.7144 10.564L34.7744 9.976L36.2024 9.988C36.3784 9.988 36.6384 9.98 36.9824 9.964C37.3264 9.948 37.5544 9.936 37.6664 9.928L37.6064 10.612C37.3584 10.644 37.1944 10.692 37.1144 10.756C37.0424 10.82 36.9984 10.94 36.9824 11.116C36.9024 12.292 36.8624 13.488 36.8624 14.704C36.8624 14.96 36.8864 15.132 36.9344 15.22C36.9824 15.3 37.0824 15.34 37.2344 15.34C37.3384 15.34 37.4224 15.336 37.4864 15.328C37.5584 15.32 37.6064 15.316 37.6304 15.316L37.6904 15.388L37.6064 16.024C37.4944 16.024 37.2824 16.02 36.9704 16.012C36.6664 16.004 36.3744 16 36.0944 16C35.8624 16 35.5904 16.008 35.2784 16.024C34.9664 16.048 34.7624 16.064 34.6664 16.072L34.7384 15.412ZM40.0101 16C39.7781 16 39.4941 16.012 39.1581 16.036C38.8301 16.06 38.6141 16.076 38.5101 16.084L38.5821 15.4C38.8621 15.352 39.0501 15.28 39.1461 15.184C39.2421 15.08 39.2901 14.908 39.2901 14.668L39.3021 11.104C39.3021 10.944 39.2781 10.832 39.2301 10.768C39.1821 10.696 39.1021 10.66 38.9901 10.66L38.6541 10.672L38.5701 10.588L38.6781 9.964L40.1061 9.988C40.3701 9.98 40.6661 9.972 40.9941 9.964C41.3301 9.948 41.5661 9.936 41.7021 9.928C42.3901 9.928 42.9141 10.056 43.2741 10.312C43.6421 10.56 43.8261 10.92 43.8261 11.392C43.8261 11.648 43.7661 11.876 43.6461 12.076C43.5261 12.276 43.3861 12.44 43.2261 12.568C43.0661 12.688 42.9221 12.772 42.7941 12.82C43.0981 12.884 43.3981 13.032 43.6941 13.264C43.9981 13.488 44.1501 13.8 44.1501 14.2C44.1501 14.784 43.9141 15.248 43.4421 15.592C42.9701 15.928 42.3301 16.096 41.5221 16.096L41.1501 16.072C40.6381 16.024 40.2581 16 40.0101 16ZM40.7661 12.496C40.8461 12.504 40.9981 12.524 41.2221 12.556C41.4461 12.58 41.5981 12.592 41.6781 12.592C41.6781 12.608 41.7341 12.58 41.8461 12.508C41.9661 12.428 42.0701 12.32 42.1581 12.184C42.2541 12.04 42.3021 11.864 42.3021 11.656C42.3021 11.368 42.1981 11.156 41.9901 11.02C41.7821 10.884 41.4581 10.816 41.0181 10.816C40.9541 10.816 40.9101 10.828 40.8861 10.852C40.8621 10.876 40.8461 10.92 40.8381 10.984C40.7901 11.624 40.7661 12.128 40.7661 12.496ZM40.7061 14.68C40.7061 14.864 40.7741 14.996 40.9101 15.076C41.0461 15.156 41.2741 15.196 41.5941 15.196C41.8981 15.196 42.1341 15.12 42.3021 14.968C42.4701 14.816 42.5541 14.604 42.5541 14.332C42.5541 14.108 42.4741 13.92 42.3141 13.768C42.1621 13.608 41.9341 13.496 41.6301 13.432H40.7421L40.7061 14.68ZM49.79 16.144C49.326 16.144 48.962 15.856 48.698 15.28L47.894 13.708H47.222L47.21 14.632C47.21 14.848 47.226 15.004 47.258 15.1C47.29 15.188 47.35 15.248 47.438 15.28C47.534 15.312 47.694 15.332 47.918 15.34L47.966 15.4L47.858 16.036C47.73 16.028 47.502 16.02 47.174 16.012C46.854 16.012 46.574 16.012 46.334 16.012C46.078 16.012 45.814 16.02 45.542 16.036C45.27 16.052 45.094 16.064 45.014 16.072L45.098 15.376C45.37 15.344 45.55 15.276 45.638 15.172C45.734 15.06 45.782 14.872 45.782 14.608L45.794 11.092C45.794 10.924 45.77 10.812 45.722 10.756C45.682 10.692 45.606 10.66 45.494 10.66L45.146 10.672L45.074 10.588L45.17 9.976L46.442 9.988C46.722 9.988 47.022 9.984 47.342 9.976C47.662 9.96 47.886 9.948 48.014 9.94C48.806 9.94 49.41 10.08 49.826 10.36C50.242 10.64 50.45 11.048 50.45 11.584C50.45 11.952 50.338 12.288 50.114 12.592C49.89 12.896 49.566 13.152 49.142 13.36L49.946 14.596C50.138 14.876 50.318 15.08 50.486 15.208C50.654 15.336 50.834 15.4 51.026 15.4L51.11 15.508L51.026 16.048L49.79 16.144ZM48.11 12.868C48.646 12.676 48.914 12.308 48.914 11.764C48.914 11.444 48.798 11.208 48.566 11.056C48.334 10.896 47.978 10.816 47.498 10.816C47.434 10.816 47.39 10.832 47.366 10.864C47.35 10.888 47.338 10.944 47.33 11.032C47.282 11.688 47.258 12.268 47.258 12.772L48.11 12.868ZM54.6106 16L54.6586 15.376C54.8906 15.352 55.0546 15.332 55.1506 15.316C55.2466 15.292 55.3106 15.26 55.3426 15.22C55.3826 15.18 55.4026 15.12 55.4026 15.04C55.4026 14.952 55.3866 14.86 55.3546 14.764L55.1866 14.14C55.0186 14.132 54.7266 14.128 54.3106 14.128C54.1266 14.128 53.8226 14.148 53.3986 14.188L53.1826 14.812C53.1506 14.932 53.1346 15.02 53.1346 15.076C53.1346 15.18 53.1626 15.252 53.2186 15.292C53.2826 15.324 53.3986 15.34 53.5666 15.34H53.9386L53.9986 15.424L53.9266 16.048C53.8306 16.04 53.6266 16.028 53.3146 16.012C53.0106 16.004 52.7266 16 52.4626 16C52.1826 16 51.9266 16.004 51.6946 16.012C51.4706 16.02 51.3226 16.024 51.2506 16.024L51.3226 15.352C51.4666 15.328 51.5826 15.272 51.6706 15.184C51.7666 15.088 51.8546 14.948 51.9346 14.764L53.6626 10.036L55.4266 9.88L55.5466 9.952C55.6426 10.312 55.8466 11.048 56.1586 12.16C56.4706 13.272 56.7266 14.124 56.9266 14.716C56.9906 14.932 57.0746 15.088 57.1786 15.184C57.2906 15.28 57.4506 15.336 57.6586 15.352L57.7066 15.424L57.6346 16.024C57.5466 16.024 57.3786 16.02 57.1306 16.012C56.8906 16.004 56.6426 16 56.3866 16C56.0266 16 55.6746 16.008 55.3306 16.024C54.9866 16.048 54.7666 16.064 54.6706 16.072L54.6106 16ZM54.3106 13.288C54.5746 13.288 54.8066 13.276 55.0066 13.252L54.4666 11.308H54.3226L53.6626 13.288H54.3106ZM62.9619 16.144C62.4979 16.144 62.1339 15.856 61.8699 15.28L61.0659 13.708H60.3939L60.3819 14.632C60.3819 14.848 60.3979 15.004 60.4299 15.1C60.4619 15.188 60.5219 15.248 60.6099 15.28C60.7059 15.312 60.8659 15.332 61.0899 15.34L61.1379 15.4L61.0299 16.036C60.9019 16.028 60.6739 16.02 60.3459 16.012C60.0259 16.012 59.7459 16.012 59.5059 16.012C59.2499 16.012 58.9859 16.02 58.7139 16.036C58.4419 16.052 58.2659 16.064 58.1859 16.072L58.2699 15.376C58.5419 15.344 58.7219 15.276 58.8099 15.172C58.9059 15.06 58.9539 14.872 58.9539 14.608L58.9659 11.092C58.9659 10.924 58.9419 10.812 58.8939 10.756C58.8539 10.692 58.7779 10.66 58.6659 10.66L58.3179 10.672L58.2459 10.588L58.3419 9.976L59.6139 9.988C59.8939 9.988 60.1939 9.984 60.5139 9.976C60.8339 9.96 61.0579 9.948 61.1859 9.94C61.9779 9.94 62.5819 10.08 62.9979 10.36C63.4139 10.64 63.6219 11.048 63.6219 11.584C63.6219 11.952 63.5099 12.288 63.2859 12.592C63.0619 12.896 62.7379 13.152 62.3139 13.36L63.1179 14.596C63.3099 14.876 63.4899 15.08 63.6579 15.208C63.8259 15.336 64.0059 15.4 64.1979 15.4L64.2819 15.508L64.1979 16.048L62.9619 16.144ZM61.2819 12.868C61.8179 12.676 62.0859 12.308 62.0859 11.764C62.0859 11.444 61.9699 11.208 61.7379 11.056C61.5059 10.896 61.1499 10.816 60.6699 10.816C60.6059 10.816 60.5619 10.832 60.5379 10.864C60.5219 10.888 60.5099 10.944 60.5019 11.032C60.4539 11.688 60.4299 12.268 60.4299 12.772L61.2819 12.868ZM65.6995 15.4C65.9635 15.368 66.1595 15.328 66.2875 15.28C66.4155 15.224 66.4995 15.144 66.5395 15.04C66.5875 14.928 66.6115 14.768 66.6115 14.56V14.308C66.6115 14.156 66.5915 14.012 66.5515 13.876C66.5115 13.74 66.4395 13.576 66.3355 13.384L65.3395 11.584C65.1955 11.312 65.0475 11.112 64.8955 10.984C64.7435 10.856 64.5275 10.756 64.2475 10.684L64.2115 10.636L64.3075 9.976C64.4115 9.976 64.5955 9.98 64.8595 9.988C65.1235 9.996 65.3795 10 65.6275 10C65.8355 10 66.1235 9.992 66.4915 9.976C66.8675 9.952 67.1155 9.936 67.2355 9.928L67.2955 10.024L67.2355 10.612C67.0275 10.62 66.8835 10.644 66.8035 10.684C66.7235 10.724 66.6835 10.792 66.6835 10.888C66.6835 10.96 66.7675 11.176 66.9355 11.536C67.1035 11.896 67.2035 12.112 67.2355 12.184L67.4635 12.664H67.5595L68.2675 11.248C68.3715 11.064 68.4235 10.92 68.4235 10.816C68.4235 10.752 68.3835 10.704 68.3035 10.672C68.2315 10.64 68.1115 10.62 67.9435 10.612L67.9075 10.564L67.9795 9.964L68.5435 9.976C68.8955 9.992 69.1635 10 69.3475 10C69.5875 10 69.8035 9.996 69.9955 9.988C70.1955 9.98 70.3275 9.972 70.3915 9.964L70.4275 10.036L70.3555 10.66C70.0995 10.748 69.8875 10.88 69.7195 11.056C69.5515 11.232 69.3675 11.496 69.1675 11.848L68.2315 13.528C68.1515 13.68 68.1035 13.832 68.0875 13.984C68.0715 14.128 68.0595 14.372 68.0515 14.716C68.0515 14.94 68.0835 15.096 68.1475 15.184C68.2195 15.272 68.3475 15.316 68.5315 15.316C68.6435 15.316 68.7435 15.312 68.8315 15.304C68.9275 15.296 68.9915 15.292 69.0235 15.292L69.0595 15.34L68.9635 16.048C68.8355 16.04 68.5995 16.028 68.2555 16.012C67.9115 16.004 67.5755 16 67.2475 16C67.0075 16 66.7035 16.012 66.3355 16.036C65.9755 16.068 65.7395 16.088 65.6275 16.096L65.6995 15.4Z" fill="black"/>
<path d="M72.5093 16C72.2613 16 71.9933 16.02 71.7053 16.06C71.4173 16.1 71.2293 16.128 71.1413 16.144L71.2133 15.592C71.5813 15.52 71.8293 15.416 71.9573 15.28C72.0853 15.136 72.1493 14.896 72.1493 14.56L72.1613 9.52C72.1613 9.264 72.1293 9.092 72.0653 9.004C72.0093 8.916 71.8933 8.872 71.7173 8.872C71.6373 8.872 71.5573 8.876 71.4773 8.884C71.3973 8.892 71.3413 8.896 71.3093 8.896L71.2853 8.848L71.3693 8.32C71.4653 8.328 71.6453 8.336 71.9093 8.344C72.1733 8.352 72.4373 8.356 72.7013 8.356C72.9733 8.356 73.2493 8.352 73.5293 8.344C73.8173 8.328 74.0133 8.316 74.1173 8.308C74.8773 8.308 75.4613 8.468 75.8693 8.788C76.2773 9.1 76.4813 9.548 76.4813 10.132C76.4813 10.532 76.3573 10.892 76.1093 11.212C75.8693 11.532 75.5293 11.788 75.0893 11.98C75.6733 12.108 76.1293 12.332 76.4573 12.652C76.7853 12.972 76.9493 13.356 76.9493 13.804C76.9493 14.212 76.8173 14.596 76.5533 14.956C76.2973 15.308 75.9533 15.592 75.5213 15.808C75.0893 16.016 74.6253 16.12 74.1293 16.12C73.9133 16.12 73.6653 16.1 73.3853 16.06C72.9293 16.02 72.6373 16 72.5093 16ZM73.0733 11.788C73.1933 11.796 73.3933 11.812 73.6733 11.836C73.9613 11.86 74.1973 11.876 74.3813 11.884C74.3813 11.908 74.4853 11.868 74.6933 11.764C74.9013 11.652 75.0893 11.484 75.2573 11.26C75.4253 11.028 75.5093 10.72 75.5093 10.336C75.5093 9.824 75.3373 9.444 74.9933 9.196C74.6493 8.948 74.1173 8.824 73.3973 8.824C73.3173 8.824 73.2613 8.844 73.2293 8.884C73.2053 8.916 73.1893 8.988 73.1813 9.1C73.1333 9.868 73.0973 10.764 73.0733 11.788ZM73.0013 14.668C73.0013 14.972 73.1053 15.188 73.3133 15.316C73.5213 15.444 73.8733 15.508 74.3693 15.508C74.8493 15.508 75.2253 15.376 75.4973 15.112C75.7773 14.84 75.9173 14.476 75.9173 14.02C75.9173 13.588 75.7813 13.236 75.5093 12.964C75.2373 12.684 74.8333 12.496 74.2973 12.4L73.0493 12.424L73.0013 14.668ZM80.8575 16.108C80.3135 16.108 79.8295 15.988 79.4055 15.748C78.9895 15.508 78.6655 15.168 78.4335 14.728C78.2095 14.288 78.0975 13.78 78.0975 13.204C78.0975 12.58 78.2375 12.02 78.5175 11.524C78.8055 11.02 79.1935 10.628 79.6815 10.348C80.1775 10.06 80.7295 9.916 81.3375 9.916C81.8895 9.916 82.3775 10.036 82.8015 10.276C83.2255 10.516 83.5535 10.856 83.7855 11.296C84.0175 11.728 84.1335 12.232 84.1335 12.808C84.1335 13.432 83.9895 13.996 83.7015 14.5C83.4215 14.996 83.0295 15.388 82.5255 15.676C82.0295 15.964 81.4735 16.108 80.8575 16.108ZM81.1455 15.532C81.7295 15.532 82.2015 15.324 82.5615 14.908C82.9215 14.484 83.1015 13.924 83.1015 13.228C83.1015 12.7 83.0135 12.236 82.8375 11.836C82.6695 11.436 82.4255 11.128 82.1055 10.912C81.7935 10.696 81.4295 10.588 81.0135 10.588C80.4455 10.588 79.9855 10.796 79.6335 11.212C79.2895 11.628 79.1175 12.184 79.1175 12.88C79.1175 13.408 79.2015 13.872 79.3695 14.272C79.5375 14.672 79.7735 14.984 80.0775 15.208C80.3895 15.424 80.7455 15.532 81.1455 15.532ZM87.877 16.108C87.333 16.108 86.849 15.988 86.425 15.748C86.009 15.508 85.685 15.168 85.453 14.728C85.229 14.288 85.117 13.78 85.117 13.204C85.117 12.58 85.257 12.02 85.537 11.524C85.825 11.02 86.213 10.628 86.701 10.348C87.197 10.06 87.749 9.916 88.357 9.916C88.909 9.916 89.397 10.036 89.821 10.276C90.245 10.516 90.573 10.856 90.805 11.296C91.037 11.728 91.153 12.232 91.153 12.808C91.153 13.432 91.009 13.996 90.721 14.5C90.441 14.996 90.049 15.388 89.545 15.676C89.049 15.964 88.493 16.108 87.877 16.108ZM88.165 15.532C88.749 15.532 89.221 15.324 89.581 14.908C89.941 14.484 90.121 13.924 90.121 13.228C90.121 12.7 90.033 12.236 89.857 11.836C89.689 11.436 89.445 11.128 89.125 10.912C88.813 10.696 88.449 10.588 88.033 10.588C87.465 10.588 87.005 10.796 86.653 11.212C86.309 11.628 86.137 12.184 86.137 12.88C86.137 13.408 86.221 13.872 86.389 14.272C86.557 14.672 86.793 14.984 87.097 15.208C87.409 15.424 87.765 15.532 88.165 15.532ZM93.1205 10.996C93.1205 10.796 93.0965 10.664 93.0485 10.6C93.0005 10.528 92.9045 10.492 92.7605 10.492L92.4365 10.504L92.4005 10.456L92.4725 10C92.5605 10 92.7205 10.004 92.9525 10.012C93.1845 10.02 93.4085 10.024 93.6245 10.024C93.8005 10.024 94.0125 10.012 94.2605 9.988C94.5085 9.964 94.6725 9.948 94.7525 9.94L94.7165 10.432C94.4685 10.472 94.3005 10.532 94.2125 10.612C94.1245 10.684 94.0765 10.808 94.0685 10.984L93.9605 14.884C93.9525 15.14 93.9765 15.312 94.0325 15.4C94.0965 15.488 94.2125 15.532 94.3805 15.532C94.4765 15.532 94.5645 15.528 94.6445 15.52C94.7245 15.512 94.7765 15.504 94.8005 15.496L94.8245 15.544L94.7405 16.024C94.6525 16.024 94.4845 16.02 94.2365 16.012C93.9885 16.004 93.7365 16 93.4805 16L92.2925 16.012L92.3885 15.532C92.6925 15.5 92.8885 15.44 92.9765 15.352C93.0645 15.264 93.1085 15.084 93.1085 14.812L93.1205 10.996ZM95.9165 11.224C96.1085 11.04 96.2045 10.884 96.2045 10.756C96.2045 10.588 96.0085 10.492 95.6165 10.468L95.5925 10.42L95.6645 9.964C95.7445 9.972 95.9125 9.984 96.1685 10C96.4245 10.016 96.6285 10.024 96.7805 10.024C96.9885 10.024 97.1845 10.02 97.3685 10.012C97.5605 10.004 97.6885 9.996 97.7525 9.988L97.8005 10.06L97.7285 10.492C97.5525 10.54 97.3845 10.624 97.2245 10.744C97.0725 10.856 96.8485 11.064 96.5525 11.368L95.1125 12.796L96.6725 14.788C96.9045 15.076 97.1085 15.28 97.2845 15.4C97.4685 15.52 97.6725 15.584 97.8965 15.592L97.9445 15.652L97.8845 16.024C97.8045 16.032 97.6645 16.048 97.4645 16.072C97.2725 16.104 97.1125 16.124 96.9845 16.132C96.6325 16.132 96.2645 15.868 95.8805 15.34L94.2245 13.048L94.2365 12.892L95.9165 11.224Z" fill="#3CB7BF"/>
<path d="M0.75 21H23.25L21.3829 6.05362C21.369 4.79887 21.4009 4.104 21.4009 4.104C21.1099 4.19363 20.6768 4.22812 20.1581 4.22812C20.0704 4.22812 19.9785 4.22662 19.8851 4.22475C19.8833 3.44137 19.8998 3 19.8998 3C19.4494 3.5925 18.4879 3.74325 17.3917 3.74325C16.2536 3.74325 14.9708 3.58087 13.9628 3.58087C12.4076 3.58087 12.0754 4.6215 12.0034 5.06888C11.9314 4.61963 11.5976 3.5835 10.0459 3.5835C9.03787 3.5835 7.75575 3.74588 6.618 3.74588C5.52075 3.74588 4.55925 3.59513 4.10887 3.00188C4.10887 3.00188 4.12537 3.44288 4.12312 4.22438C4.0305 4.22588 3.93825 4.22775 3.85013 4.22775C3.33075 4.22775 2.89875 4.19325 2.60775 4.10362C2.60775 4.10362 2.63813 4.76775 2.6265 5.97337L0.75 21ZM20.1581 4.92638C20.3475 4.92638 20.5211 4.92188 20.6805 4.91325C20.661 6.95063 20.7476 12.5164 21.9889 19.7183C21.7589 19.6814 21.5297 19.6397 21.3015 19.5934C21.4485 19.5323 21.5651 19.449 21.6439 19.3369C20.2211 13.3102 19.935 7.73888 19.8923 4.92262C19.9823 4.9245 20.0719 4.92638 20.1581 4.92638V4.92638ZM14.109 4.54163C14.8706 4.54163 15.8899 4.63125 16.968 4.72612C17.721 4.7925 18.4901 4.85925 19.1918 4.89675C19.2349 7.66987 19.509 13.1111 20.8444 18.9998C20.7435 19.0166 20.6036 19.0297 20.4109 19.0297C19.6984 19.0297 18.6776 18.8486 17.6906 18.6731C16.5791 18.4759 15.4301 18.2715 14.4926 18.2715C13.7659 18.2715 13.1936 18.408 12.7425 18.6169C12.7252 18.624 12.7054 18.6293 12.6893 18.6368L12.6866 5.50763C12.6998 5.32238 12.8303 4.54163 14.109 4.54163V4.54163ZM4.818 4.89675C5.51962 4.85925 6.288 4.7925 7.04062 4.72612C8.11912 4.63162 9.13838 4.54163 9.90075 4.54163C11.1379 4.54163 11.3033 5.26462 11.3224 5.523L11.319 18.6364C11.2894 18.6232 11.2541 18.6128 11.223 18.6004C10.7775 18.402 10.2202 18.2723 9.51487 18.2723C8.57737 18.2723 7.42838 18.477 6.31725 18.6743C5.3295 18.8501 4.30912 19.0312 3.59662 19.0312C3.40387 19.0312 3.26362 19.0181 3.16425 19.0016C4.5 13.1123 4.77412 7.66912 4.818 4.89675V4.89675ZM3.32887 4.91325C3.48862 4.92188 3.66188 4.92638 3.85125 4.92638C3.9375 4.92638 4.0275 4.9245 4.1175 4.923C4.07437 7.7385 3.78787 13.3114 2.36437 19.3391C2.44275 19.4505 2.55825 19.5337 2.70338 19.5945C2.4705 19.641 2.24137 19.6834 2.01862 19.7186C3.261 12.5164 3.348 6.95063 3.32887 4.91325" fill="#3CB7BF"/>
<path d="M9.44887 5.21852C10.4111 5.21852 10.7284 5.43677 10.7317 5.43902L10.821 5.32202L10.9121 5.20764C10.875 5.17989 10.5187 4.93164 9.45899 4.93164C8.66137 4.93164 7.67662 5.13377 6.80287 5.31152C6.16612 5.44202 5.61449 5.55489 5.29874 5.55489L5.27287 5.84664C5.62049 5.84664 6.18824 5.73002 6.84412 5.59502C7.70662 5.41839 8.67937 5.21852 9.44887 5.21852V5.21852ZM9.39862 6.68852C10.3796 6.68852 10.704 6.91539 10.707 6.91764L10.7977 6.79689L10.8907 6.67764C10.8529 6.64727 10.4899 6.38964 9.40912 6.38964C8.59574 6.38964 7.59149 6.59889 6.70049 6.78527C6.05062 6.91989 5.48812 7.03764 5.16637 7.03764L5.13899 7.34177C5.49374 7.34177 6.07237 7.22027 6.74174 7.08077C7.62074 6.89664 8.61412 6.68852 9.39862 6.68852V6.68852ZM9.34649 8.21852C10.3474 8.21852 10.6774 8.45364 10.6811 8.45664L10.7737 8.33064L10.869 8.20727C10.83 8.17577 10.4591 7.90764 9.35699 7.90764C8.52749 7.90764 7.50299 8.12552 6.59362 8.31902C5.93024 8.45964 5.35574 8.58227 5.02799 8.58227L4.99912 8.89802C5.36137 8.89802 5.95237 8.77202 6.63487 8.62652C7.53224 8.43414 8.54549 8.21852 9.34649 8.21852V8.21852ZM9.29137 9.81077C10.3125 9.81077 10.6496 10.0568 10.6537 10.059L10.7482 9.92814L10.845 9.79839C10.8056 9.76652 10.4272 9.48677 9.30299 9.48677C8.45624 9.48677 7.40999 9.71364 6.48187 9.91577C5.80462 10.0624 5.21887 10.1891 4.88324 10.1891L4.85399 10.5191C5.22299 10.5191 5.82749 10.3875 6.52424 10.2356C7.44074 10.0358 8.47424 9.81077 9.29137 9.81077V9.81077ZM9.23474 11.4701C10.2772 11.4701 10.6219 11.7266 10.6249 11.7293L10.7224 11.5924L10.8214 11.4574C10.7805 11.424 10.3946 11.133 9.24637 11.133C8.38237 11.133 7.31399 11.3693 6.36599 11.5793C5.67374 11.7319 5.07562 11.865 4.73287 11.865L4.70249 12.2089C5.07937 12.2089 5.69587 12.0716 6.40837 11.9126C7.34399 11.7045 8.39924 11.4701 9.23474 11.4701V11.4701ZM9.17512 13.2008C10.2401 13.2008 10.5919 13.4678 10.5952 13.4708L10.6942 13.3283L10.7959 13.1876C10.7546 13.1528 10.3605 12.849 9.18787 12.849C8.30512 12.849 7.21312 13.0958 6.24487 13.3148C5.53724 13.4745 4.92562 13.6129 4.57574 13.6129L4.54387 13.971C4.92937 13.971 5.56012 13.8281 6.28762 13.6631C7.24387 13.4453 8.32274 13.2008 9.17512 13.2008ZM9.11362 15.0075C10.2019 15.0075 10.5607 15.2873 10.5645 15.2903L10.6657 15.141L10.7689 14.994C10.7269 14.9573 10.3241 14.6404 9.12562 14.6404C8.22374 14.6404 7.10812 14.8984 6.11774 15.1264C5.39512 15.2933 4.76924 15.4384 4.41224 15.4384L4.37849 15.8134C4.77262 15.8134 5.41724 15.6634 6.16124 15.4905C7.13924 15.2633 8.24212 15.0075 9.11362 15.0075ZM9.04799 16.8956C10.1617 16.8956 10.5281 17.187 10.5319 17.19L10.6354 17.034L10.7415 16.881C10.698 16.8428 10.287 16.5113 9.06187 16.5113C8.13937 16.5113 6.99824 16.7805 5.98537 17.0198C5.24624 17.1945 4.60612 17.3445 4.24087 17.3445L4.20599 17.7368C4.60837 17.7368 5.26762 17.5808 6.02887 17.4004C7.02974 17.163 8.15774 16.8956 9.04799 16.8956ZM13.2772 5.43902C13.2802 5.43677 13.5975 5.21852 14.5597 5.21852C15.33 5.21852 16.3024 5.41839 17.1645 5.59502C17.8204 5.73002 18.3881 5.84664 18.7354 5.84664L18.7095 5.55489C18.3937 5.55489 17.8421 5.44202 17.2054 5.31152C16.3324 5.13377 15.3472 4.93164 14.5496 4.93164C13.4906 4.93164 13.1336 5.17989 13.0961 5.20764L13.1876 5.32202L13.2772 5.43902V5.43902ZM14.6002 6.39002C13.5191 6.39002 13.1557 6.64764 13.1186 6.67802L13.2116 6.79727L13.302 6.91802C13.3054 6.91614 13.6294 6.68889 14.6107 6.68889C15.3952 6.68889 16.3879 6.89664 17.2669 7.08077C17.9359 7.22064 18.5149 7.34177 18.8696 7.34177L18.8422 7.03764C18.5212 7.03764 17.9584 6.92027 17.3085 6.78527C16.4179 6.59927 15.4136 6.39002 14.6002 6.39002V6.39002ZM14.652 7.90764C13.5499 7.90764 13.179 8.17577 13.1404 8.20727L13.2352 8.33064L13.3279 8.45664C13.3312 8.45402 13.662 8.21852 14.6625 8.21852C15.4639 8.21852 16.476 8.43414 17.3737 8.62614C18.0562 8.77164 18.6476 8.89764 19.0091 8.89764L18.981 8.58189C18.6529 8.58189 18.0787 8.45927 17.415 8.31864C16.5067 8.12514 15.4815 7.90764 14.652 7.90764V7.90764ZM14.706 9.48677C13.581 9.48677 13.2026 9.76614 13.164 9.79839L13.2604 9.92814L13.3552 10.059C13.359 10.0568 13.6957 9.81077 14.7172 9.81077C15.5347 9.81077 16.5686 10.0358 17.4855 10.2353C18.1822 10.3871 18.786 10.5188 19.1554 10.5188L19.125 10.1891C18.7897 10.1891 18.204 10.0624 17.5267 9.91577C16.599 9.71364 15.5527 9.48677 14.706 9.48677V9.48677ZM14.7619 11.133C13.6132 11.133 13.2281 11.424 13.188 11.4574L13.287 11.5924L13.3834 11.7293C13.3875 11.7266 13.731 11.4701 14.7742 11.4701C15.609 11.4701 16.665 11.7045 17.6002 11.9126C18.3127 12.0716 18.9296 12.2089 19.3069 12.2089L19.2761 11.865C18.9334 11.865 18.3349 11.7319 17.6434 11.5793C16.6954 11.3693 15.627 11.133 14.7619 11.133V11.133ZM14.8204 12.849C13.6477 12.849 13.254 13.1531 13.2124 13.1876L13.314 13.3283L13.413 13.4708C13.416 13.4678 13.7677 13.2008 14.8327 13.2008C15.6847 13.2008 16.764 13.4453 17.7206 13.6628C18.4481 13.8278 19.0785 13.9706 19.464 13.9706L19.4317 13.6125C19.0822 13.6125 18.4706 13.4741 17.7641 13.3144C16.7955 13.0958 15.7039 12.849 14.8204 12.849ZM14.8826 14.64C13.6841 14.64 13.2817 14.9573 13.2394 14.9936L13.3421 15.1406L13.4437 15.2899C13.4471 15.2869 13.8064 15.0071 14.895 15.0071C15.7661 15.0071 16.8694 15.2633 17.847 15.4898C18.591 15.6626 19.236 15.8126 19.6297 15.8126L19.5956 15.4376C19.2382 15.4376 18.6127 15.2925 17.8909 15.1256C16.9001 14.898 15.7845 14.64 14.8826 14.64ZM14.9464 16.5109C13.7209 16.5109 13.3095 16.8428 13.2664 16.8806L13.3717 17.0336L13.4752 17.1896C13.4794 17.1866 13.8465 16.8953 14.9591 16.8953C15.8505 16.8953 16.9785 17.1626 17.9786 17.4C18.7395 17.5804 19.3991 17.7364 19.8022 17.7364L19.7666 17.3441C19.4014 17.3441 18.7612 17.1941 18.0225 17.0194C17.0096 16.7801 15.8681 16.5109 14.9464 16.5109" fill="#3CB7BF"/>
</svg>
